<svg id="Camada_2" data-name="Camada 2" xmlns="http://www.w3.org/2000/svg" viewBox="0 0 455.33 504.42"><defs><style>.cls-1{fill:#ed6a24;}.cls-2{fill:none;stroke:#ed6a24;stroke-miterlimit:10;stroke-width:13px;}</style></defs><path class="cls-1" d="M179.61,681.07H71.87V573.33H179.61Zm-94.74-13h81.74V586.33H84.87Z" transform="translate(-70.57 -176.65)"/><path class="cls-1" d="M525.89,681.07H418.15V573.33H525.89Zm-94.74-13h81.74V586.33H431.15Z" transform="translate(-70.57 -176.65)"/><path class="cls-2" d="M519.31,401.25" transform="translate(-70.57 -176.65)"/><path class="cls-1" d="M525.9,407.76H70.57l.09-6.59a227.6,227.6,0,0,1,455.15,0Zm-442.06-13H512.62c-5-113.7-99.83-205.11-214.36-205.11S88.87,281.06,83.84,394.76Z" transform="translate(-70.57 -176.65)"/><path class="cls-1" d="M525.89,551.49H70.66V394.76H525.89Zm-442.23-13H512.89V407.76H83.66Z" transform="translate(-70.57 -176.65)"/><path class="cls-2" d="M408.81,401.25" transform="translate(-70.57 -176.65)"/><path class="cls-1" d="M415.4,407.76H181.15l.08-6.59a117.05,117.05,0,0,1,234.08,0Zm-220.87-13H402c-4.13-53.54-49.34-96.05-103.72-96.05S198.66,341.22,194.53,394.76Z" transform="translate(-70.57 -176.65)"/></svg>